<?xml version="1.0" encoding="UTF-8"?>
<svg width="24px" height="24px" viewBox="0 0 24 24" version="1.1" xmlns="http://www.w3.org/2000/svg" xmlns:xlink="http://www.w3.org/1999/xlink">
    <title>buttonssosigninunity</title>
    <g id="buttonssosigninunity" stroke="none" stroke-width="1" fill="none" fill-rule="evenodd">
        <rect fill="#FFFFFF" x="0" y="0" width="24" height="24"></rect>
        <path d="M16.3010828,16.7152318 L13.4109589,11.823416 L16.298701,6.96688742 L17.6849315,11.8464455 L16.3010828,16.7152318 Z M9.74741809,16.4634376 L6.06849315,12.9006623 L11.9268296,12.9006623 L14.8356164,17.6688742 L9.74741809,16.4634376 Z M9.7369611,7.55577998 L14.8356164,6.33112583 L11.9402882,11.0832767 L6.06849315,11.0993377 L9.7369611,7.55577998 Z M19,10.3420506 L17.2484829,4 L10.7168234,5.70508078 L9.73901069,7.35922623 L7.77766253,7.36488571 L3,12.0000928 L7.75276894,16.6354854 L9.71850448,16.6354854 L10.6889731,18.3055887 L17.2084242,20 L19,13.6097046 L18.0046377,11.9879388 L19,10.3420506 Z" id="Shape" fill="#000000"></path>
    </g>
</svg>