<?xml version="1.0" encoding="UTF-8"?>
<svg width="24px" height="24px" viewBox="0 0 24 24" version="1.1" xmlns="http://www.w3.org/2000/svg" xmlns:xlink="http://www.w3.org/1999/xlink">
    <title>buttonssosigninsso</title>
    <g id="buttonssosigninsso" stroke="none" stroke-width="1" fill="none" fill-rule="evenodd">
        <path d="M12,3 C14.209139,3 16,4.790861 16,7 L16,10 L17,10 C17.5522847,10 18,10.4477153 18,11 L18,19 C18,19.5522847 17.5522847,20 17,20 L7,20 C6.44771525,20 6,19.5522847 6,19 L6,11 C6,10.4477153 6.44771525,10 7,10 L8,10 L8,7 C8,4.790861 9.790861,3 12,3 Z M17,11 L7,11 L7,19 L17,19 L17,11 Z M12,13 C12.5522847,13 13,13.4477153 13,14 L13,16 C13,16.5522847 12.5522847,17 12,17 C11.4477153,17 11,16.5522847 11,16 L11,14 C11,13.4477153 11.4477153,13 12,13 Z M12,4 C10.4023191,4 9.09633912,5.24891996 9.00509269,6.82372721 L9,7 L9,10 L15,10 L15,7 C15,5.40231912 13.75108,4.09633912 12.1762728,4.00509269 L12,4 Z" id="Combined-Shape" fill="#C4C4C4" fill-rule="nonzero"></path>
    </g>
</svg>