<?xml version="1.0" encoding="UTF-8"?>
<svg width="24px" height="24px" viewBox="0 0 24 24" version="1.1" xmlns="http://www.w3.org/2000/svg" xmlns:xlink="http://www.w3.org/1999/xlink">
    <title>buttonssosigniemail</title>
    <g id="buttonssosigniemail" stroke="none" stroke-width="1" fill="none" fill-rule="evenodd">
        <g id="iconfinder_mail_email_e-mail_letter_5340267" transform="translate(3.000000, 6.000000)" fill="#C4C4C4" fill-rule="nonzero">
            <path d="M17.3076923,4.15384615 C17.6900433,4.15384615 18,4.46380287 18,4.84615385 L18,4.84615385 L18,10.3846154 C17.9995152,10.935264 17.7803792,11.4631827 17.3907692,11.8523077 C17.0016442,12.2419177 16.4737256,12.4610537 15.9230769,12.4615385 L15.9230769,12.4615385 L2.07692308,12.4615385 C1.52627441,12.4610537 0.998355761,12.2419177 0.609230769,11.8523077 C0.219620804,11.4631827 0.000484759495,10.935264 0,10.3846154 L0,10.3846154 L0,4.84615385 C0,4.46380287 0.309956712,4.15384615 0.692307692,4.15384615 C1.07465867,4.15384615 1.38461538,4.46380287 1.38461538,4.84615385 L1.38461538,4.84615385 L1.38461538,10.3846154 C1.38461538,10.7669664 1.6945721,11.0769231 2.07692308,11.0769231 L2.07692308,11.0769231 L15.9230769,11.0769231 C16.3054279,11.0769231 16.6153846,10.7669664 16.6153846,10.3846154 L16.6153846,10.3846154 L16.6153846,4.84615385 C16.6153846,4.46380287 16.9253413,4.15384615 17.3076923,4.15384615 Z M15.9230769,-1.77635684e-15 C16.4737256,0.000484759495 17.0016442,0.219620804 17.3907692,0.609230769 C17.558062,0.776610551 17.6961272,0.97083793 17.7992308,1.18384615 C17.9413729,1.4809593 17.854514,1.83708065 17.5915385,2.03538462 L17.5915385,2.03538462 L9.41538462,8.16923077 C9.16923077,8.35384615 8.83076923,8.35384615 8.58461538,8.16923077 L8.58461538,8.16923077 L0.408461538,2.03538462 C0.145486004,1.83708065 0.0586271377,1.4809593 0.200769231,1.18384615 C0.303872795,0.97083793 0.44193804,0.776610551 0.609230769,0.609230769 C0.998355761,0.219620804 1.52627441,0.000484759495 2.07692308,-1.77635684e-15 L2.07692308,-1.77635684e-15 Z M16.02,1.37703076 L15.9230769,1.38461538 L2.07692308,1.38461538 C2.01270338,1.37450255 1.94729662,1.37450255 1.88307692,1.38461538 L1.88307692,1.38461538 L9,6.75 L16.1169231,1.38461538 C16.0527034,1.37450255 15.9872966,1.37450255 15.9230769,1.38461538 Z" id="Combined-Shape"></path>
        </g>
    </g>
</svg>