<?xml version="1.0" encoding="UTF-8"?>
<svg width="24px" height="24px" viewBox="0 0 24 24" version="1.1" xmlns="http://www.w3.org/2000/svg" xmlns:xlink="http://www.w3.org/1999/xlink">
    <title>buttonssosigningoogle</title>
    <g id="buttonssosigningoogle" stroke="none" stroke-width="1" fill="none" fill-rule="evenodd">
        <g id="button" fill="#4285F4">
            <rect id="button-bg" x="0" y="0" width="24" height="24" rx="1.20833333"></rect>
        </g>
        <g id="Group" transform="translate(0.583333, 0.583333)">
            <rect id="button-bg-copy" fill="#FFFFFF" x="0.416666667" y="0.416666667" width="22" height="22" rx="0.604166667"></rect>
            <g id="google-logo" transform="translate(6.000000, 6.000000)">
                <path d="M10.6575,5.56107955 C10.6575,5.17551136 10.6228977,4.80477273 10.5586364,4.44886364 L5.4375,4.44886364 L5.4375,6.5521875 L8.36386364,6.5521875 C8.2378125,7.231875 7.85471591,7.80775568 7.27883523,8.19332386 L7.27883523,9.55764205 L9.03613636,9.55764205 C10.0643182,8.61102273 10.6575,7.21704545 10.6575,5.56107955 L10.6575,5.56107955 Z" id="Shape" fill="#4285F4"></path>
                <path d="M5.4375,10.875 C6.905625,10.875 8.13647727,10.3880966 9.03613636,9.55764205 L7.27883523,8.19332386 C6.79193182,8.51957386 6.16909091,8.71235795 5.4375,8.71235795 C4.02127841,8.71235795 2.82255682,7.75585227 2.39497159,6.470625 L0.578352273,6.470625 L0.578352273,7.87943182 C1.47306818,9.65650568 3.31193182,10.875 5.4375,10.875 L5.4375,10.875 Z" id="Shape" fill="#34A853"></path>
                <path d="M2.39497159,6.470625 C2.28622159,6.144375 2.22443182,5.79588068 2.22443182,5.4375 C2.22443182,5.07911932 2.28622159,4.730625 2.39497159,4.404375 L2.39497159,2.99556818 L0.578352273,2.99556818 C0.210085227,3.72963068 -5.55111512e-15,4.56008523 -5.55111512e-15,5.4375 C-5.55111512e-15,6.31491477 0.210085227,7.14536932 0.578352273,7.87943182 L2.39497159,6.470625 L2.39497159,6.470625 Z" id="Shape" fill="#FBBC05"></path>
                <path d="M5.4375,2.16264205 C6.23582386,2.16264205 6.95258523,2.43698864 7.51610795,2.97579545 L9.07568182,1.41622159 C8.13400568,0.538806818 6.90315341,4.4408921e-16 5.4375,4.4408921e-16 C3.31193182,4.4408921e-16 1.47306818,1.21849432 0.578352273,2.99556818 L2.39497159,4.404375 C2.82255682,3.11914773 4.02127841,2.16264205 5.4375,2.16264205 L5.4375,2.16264205 Z" id="Shape" fill="#EA4335"></path>
            </g>
        </g>
    </g>
</svg>