<?xml version="1.0" encoding="UTF-8"?>
<svg width="16px" height="16px" viewBox="0 0 16 16" version="1.1" xmlns="http://www.w3.org/2000/svg" xmlns:xlink="http://www.w3.org/1999/xlink">
    <title>icongluonlink </title>
    <g id="icongluonlink-" stroke="none" stroke-width="1" fill="none" fill-rule="evenodd">
        <g id="iconlink-copy">
            <rect id="Rectangle" x="0" y="0" width="16" height="16"></rect>
            <path d="M4.5777,6.80249783 C6.1989,5.19390231 8.060375,4.96290296 9.31985,6.21274948 C9.659875,6.55014854 9.661975,7.09947201 9.324225,7.43932106 C8.98665,7.77917011 8.4375,7.78144511 8.097475,7.44369605 C7.356525,6.70887309 6.33995,7.4979459 5.79955,8.0337944 L5.79955,8.0337944 L3.19205,10.6208122 C2.89735,10.9135864 2.735125,11.3026103 2.735125,11.7159591 C2.735125,12.129308 2.897175,12.5181569 3.192225,12.8109311 C3.80595,13.4201044 4.804675,13.4195794 5.41875,12.8109311 L5.41875,12.8109311 L6.12715,12.1074331 C6.467175,11.769859 7.01685,11.771784 7.354075,12.111458 C7.691825,12.4514821 7.6899,13.0006306 7.35005,13.3380296 L7.35005,13.3380296 L6.641125,14.0417027 C5.99695,14.6808009 5.151175,15 4.305225,15 C3.45945,15 2.614025,14.6808009 1.9702,14.0420527 C1.3444,13.4209794 1,12.5951567 1,11.7159591 C1,10.8367616 1.3444,10.0107639 1.970025,9.38969063 L1.970025,9.38969063 Z M9.533,1.88518653 C10.7853,0.64268999 12.6767,0.715489788 14.02945,2.05773605 C14.65525,2.67915932 15,3.50533202 15,4.38417957 C15,5.26337712 14.65525,6.08954982 14.0298,6.71062309 L14.0298,6.71062309 L11.247825,9.4703654 C10.388575,10.323488 9.484875,10.7543368 8.6293,10.7543368 C7.930525,10.7543368 7.26395,10.4669876 6.679975,9.88738924 C6.33995,9.54999018 6.33785,9.00066671 6.6756,8.66081766 C7.01335,8.3209686 7.562325,8.31886861 7.90235,8.65644267 C8.156975,8.90914197 8.753725,9.50151532 10.0258,8.23941883 L10.0258,8.23941883 L12.807775,5.47967652 C13.10265,5.18690233 13.26505,4.79787842 13.26505,4.38435457 C13.26505,3.97100572 13.102825,3.5819818 12.807425,3.28920762 C12.253375,2.73953415 11.403925,2.47248489 10.7552,3.1166581 L10.7552,3.1166581 L9.8725,3.99270566 C9.532475,4.33027972 8.983325,4.32835472 8.645575,3.98833067 C8.307825,3.64830662 8.309925,3.09933315 8.64995,2.76175909 L8.64995,2.76175909 Z" id="iconlink" fill="#898A8A" fill-rule="nonzero"></path>
        </g>
    </g>
</svg>